<?xml version="1.0" encoding="utf-8"?>
<!-- Generator: Adobe Illustrator 26.2.1, SVG Export Plug-In . SVG Version: 6.00 Build 0)  -->
<svg version="1.1" xmlns="http://www.w3.org/2000/svg" xmlns:xlink="http://www.w3.org/1999/xlink" x="0px" y="0px"
	 viewBox="0 0 62.45 56.69" style="enable-background:new 0 0 62.45 56.69;" xml:space="preserve">
<style type="text/css">
	.st0{fill:#FBB584;}
	.st1{fill:#F89B6C;}
	.st2{fill:#F37321;}
	.st3{display:none;}
	.st4{display:inline;}
</style>
<g id="레이어_1">
	<g>
		<path class="st0" d="M23.08,29.06c-0.81-7.37,6.91-13.29,17.25-13.2c10.34,0.08,19.38,6.12,20.19,13.48
			c0.81,7.38-6.91,13.28-17.25,13.2C32.94,42.47,23.9,36.43,23.08,29.06 M62.45,31.35c-0.93-9.14-11.34-16.63-23.24-16.73
			c-11.91-0.1-20.79,7.23-19.86,16.37c0.93,9.14,11.34,16.63,23.24,16.73C54.5,47.81,63.39,40.49,62.45,31.35"/>
		<path class="st1" d="M44.48,47.9c-5.86,6.13-15.27,6.64-21.02,1.14c-5.74-5.5-5.65-14.92,0.22-21.04
			c5.86-6.12,15.28-6.63,21.01-1.14C50.44,32.36,50.35,41.78,44.48,47.9 M22.77,27.8c-6.81,7.12-6.92,18.07-0.25,24.46
			c6.67,6.39,17.61,5.8,24.42-1.32c6.82-7.12,6.93-18.07,0.25-24.46C40.52,20.09,29.58,20.68,22.77,27.8"/>
		<path class="st2" d="M23.39,4.88C35.58,0.31,47.64,4.93,50.32,15.2C53,25.47,45.29,37.5,33.1,42.07
			C20.9,46.64,8.84,42.02,6.17,31.75C3.48,21.48,11.2,9.45,23.39,4.88 M12.07,8.8C-0.58,18.82-3.8,33.33,4.87,41.21
			c8.68,7.89,25.96,6.16,38.62-3.86c12.65-10.01,15.87-24.52,7.19-32.41C42-2.94,24.71-1.21,12.07,8.8"/>
	</g>
	<g class="st3">
		<path class="st4" d="M70.96,28.4c0-2.27,0.29-4.37,0.87-6.28c0.58-1.92,1.4-3.6,2.45-5.05h2.67c-1.21,1.93-2.08,3.84-2.6,5.73
			c-0.52,1.88-0.78,3.75-0.78,5.6c0,1.83,0.26,3.7,0.78,5.6c0.52,1.9,1.39,3.81,2.6,5.73h-2.67c-1.05-1.41-1.87-3.09-2.45-5.03
			C71.25,32.75,70.96,30.65,70.96,28.4z"/>
		<path class="st4" d="M92.82,32.47h-7.31v5.81h-2.9v-5.81h-7.29v-2.6h17.5V32.47z M91.34,21.27h-5.74c0.22,1.34,0.9,2.47,2.03,3.39
			c1.11,0.9,2.43,1.39,3.96,1.45v2.53c-2.11,0.02-4-0.57-5.66-1.76c-0.73-0.53-1.35-1.14-1.84-1.85c-0.5,0.71-1.12,1.33-1.86,1.85
			c-1.66,1.19-3.55,1.78-5.67,1.76V26.1c1.53-0.06,2.85-0.54,3.96-1.45c1.13-0.92,1.81-2.05,2.03-3.39h-5.72v-2.55h14.5V21.27z"/>
		<path class="st4" d="M97.08,28.4c0,2.25-0.29,4.35-0.87,6.3c-0.58,1.94-1.4,3.62-2.45,5.03h-2.67c1.21-1.92,2.08-3.83,2.6-5.73
			c0.52-1.9,0.78-3.77,0.78-5.6c0-1.85-0.26-3.72-0.78-5.6c-0.52-1.88-1.39-3.79-2.6-5.73h2.67c1.05,1.45,1.87,3.13,2.45,5.05
			C96.79,24.03,97.08,26.13,97.08,28.4z"/>
		<path class="st4" d="M114.19,22.09h-14.2v-2.27h14.2V22.09z M107.09,32.07c-1.8,0-3.26-0.45-4.38-1.36
			c-1.13-0.91-1.69-1.99-1.69-3.26c0-1.25,0.56-2.33,1.69-3.23c1.13-0.91,2.59-1.36,4.38-1.36c1.79,0,3.26,0.45,4.38,1.36
			c1.13,0.91,1.69,1.98,1.69,3.23c0,1.27-0.56,2.35-1.69,3.26C110.35,31.62,108.89,32.07,107.09,32.07z M108.17,37.3h12.28v2.43
			h-13.04c-2.82,0-4.22-1.31-4.22-3.93v-2.53h3.17v2.16C106.35,36.67,106.96,37.3,108.17,37.3z M103.45,16.71h7.29V19h-7.29V16.71z
			 M107.09,29.85c0.83,0,1.54-0.23,2.12-0.69c0.59-0.46,0.88-1.03,0.88-1.72c0-0.67-0.29-1.23-0.88-1.69
			c-0.59-0.46-1.3-0.69-2.12-0.69c-0.83,0-1.54,0.23-2.12,0.69c-0.59,0.46-0.88,1.02-0.88,1.69c0,0.69,0.29,1.26,0.88,1.72
			C105.55,29.62,106.26,29.85,107.09,29.85z M120.34,22.91h3.27v2.48h-3.27v8h-3.14V17.1h3.14V22.91z"/>
		<path class="st4" d="M131.85,31.94c-1.13-0.19-2.09-0.62-2.88-1.27c-1.09-0.9-1.64-1.97-1.64-3.22s0.56-2.33,1.69-3.23
			c1.13-0.91,2.59-1.36,4.38-1.36c1.8,0,3.26,0.45,4.38,1.36c1.13,0.91,1.69,1.98,1.69,3.23s-0.55,2.32-1.64,3.22
			c-0.77,0.63-1.72,1.06-2.82,1.27v2.4h3.51c3.17,0,4.75-1.22,4.75-3.67V17.1h3.14v7.6h3.27v2.51h-3.27v12.57h-3.14v-4.25
			c-0.95,0.85-2.36,1.27-4.22,1.27h-13.3v-2.46h6.1V31.94z M140.46,22.09h-14.2v-2.27h14.2V22.09z M129.77,16.71h7.29V19h-7.29
			V16.71z M133.41,29.85c0.83,0,1.54-0.23,2.13-0.69c0.59-0.46,0.88-1.03,0.88-1.72c0-0.67-0.29-1.23-0.88-1.69
			c-0.59-0.46-1.3-0.69-2.13-0.69c-0.83,0-1.54,0.23-2.12,0.69c-0.59,0.46-0.88,1.02-0.88,1.69c0,0.69,0.29,1.26,0.88,1.72
			C131.87,29.62,132.58,29.85,133.41,29.85z"/>
	</g>
</g>
<g id="레이어_2">
</g>
</svg>
